<?xml version="1.0" standalone="no"?>
<!DOCTYPE svg PUBLIC "-//W3C//DTD SVG 20010904//EN"
 "http://www.w3.org/TR/2001/REC-SVG-20010904/DTD/svg10.dtd">
<svg version="1.0" xmlns="http://www.w3.org/2000/svg"
 width="500.000000pt" height="500.000000pt" viewBox="0 0 500.000000 500.000000"
 preserveAspectRatio="xMidYMid meet">

<g transform="translate(0.000000,500.000000) scale(0.100000,-0.100000)"
fill="#000000" stroke="none">
<path d="M0 2500 l0 -2500 2500 0 2500 0 0 2500 0 2500 -2500 0 -2500 0 0
-2500z m2544 1674 c20 -20 21 -68 1 -88 -13 -12 -15 -69 -15 -380 l0 -366 23
-4 c12 -3 36 -7 52 -10 58 -9 145 -48 197 -87 l53 -39 257 257 c206 206 258
263 260 286 2 19 13 38 30 50 23 17 31 19 53 9 14 -6 31 -23 37 -37 10 -22 8
-30 -9 -53 -12 -17 -31 -28 -50 -30 -23 -2 -81 -54 -287 -261 l-258 -258 26
-30 c32 -38 81 -136 91 -180 6 -32 5 -33 -25 -33 -20 0 -33 6 -36 18 -70 208
-234 333 -439 334 -210 1 -378 -125 -449 -334 -3 -12 -16 -18 -36 -18 -28 0
-31 3 -24 23 23 76 50 133 81 174 l35 46 -258 258 c-186 186 -265 259 -281
259 -47 0 -77 56 -53 100 25 47 110 26 110 -28 0 -22 48 -75 261 -288 l261
-261 63 42 c68 46 136 73 213 83 l47 7 3 366 c2 355 2 366 -18 384 -41 37 -14
105 41 105 15 0 35 -7 43 -16z m-126 -122 c17 -22 15 -67 -3 -82 -12 -10 -15
-49 -15 -229 l0 -216 -61 -12 c-61 -12 -186 -66 -238 -102 l-27 -20 -155 155
c-113 114 -159 154 -173 150 -23 -6 -66 35 -66 64 0 26 34 60 60 60 27 0 60
-35 60 -63 0 -15 42 -64 138 -160 l139 -138 64 35 c35 19 97 44 137 56 l72 22
0 192 c0 180 -1 194 -20 211 -45 41 -5 113 55 98 11 -3 26 -12 33 -21z m254
11 c22 -20 24 -66 3 -83 -13 -11 -15 -44 -13 -212 l3 -200 72 -23 c40 -12 98
-37 129 -55 l57 -32 138 138 c89 89 139 146 139 159 0 52 64 81 99 46 21 -21
27 -56 13 -77 -9 -14 -47 -34 -65 -34 -7 0 -81 -68 -164 -151 l-150 -152 -46
32 c-54 37 -176 87 -235 97 l-42 7 0 217 c0 204 -1 218 -20 235 -24 22 -26 53
-4 83 18 26 60 29 86 5z m816 -447 c5 -6 13 -21 16 -33 9 -29 -36 -78 -63 -70
-14 3 -56 -33 -156 -133 l-138 -138 41 -84 c23 -45 47 -107 53 -135 l12 -53
195 0 c174 0 196 2 218 19 26 20 66 18 85 -5 15 -18 15 -60 -1 -79 -16 -20
-84 -20 -100 0 -10 12 -48 15 -225 15 l-212 0 -12 58 c-14 63 -67 185 -102
233 l-22 31 155 156 c86 87 154 162 151 169 -7 18 16 53 40 62 25 9 52 4 65
-13z m-1886 -3 c10 -9 18 -28 18 -42 0 -20 34 -60 151 -177 l151 -151 -40 -68
c-39 -64 -73 -150 -87 -222 l-7 -33 -218 0 c-181 0 -220 -3 -230 -15 -15 -18
-71 -20 -88 -3 -17 17 -15 73 3 88 21 17 62 16 84 -4 15 -14 47 -16 212 -16
l194 0 18 63 c10 34 35 95 55 135 l36 73 -134 134 c-85 85 -142 135 -155 135
-33 0 -65 28 -65 57 0 55 62 83 102 46z m1678 -778 c7 -8 50 -74 95 -145 l83
-131 20 33 c39 63 82 163 82 191 0 15 -9 36 -20 47 l-20 20 65 0 c36 0 65 -2
65 -5 0 -3 -40 -68 -90 -145 -49 -77 -90 -145 -90 -150 0 -5 41 -73 90 -151
50 -77 90 -142 90 -145 0 -3 -23 -4 -51 -2 l-52 3 -86 137 c-47 75 -90 136
-95 134 -5 -1 -29 -40 -53 -86 -51 -100 -59 -164 -20 -180 16 -6 5 -9 -45 -9
-38 -1 -68 2 -68 5 0 4 37 66 83 138 46 72 87 136 91 143 4 7 -32 73 -84 153
-49 78 -90 145 -90 151 0 15 86 11 100 -6z m-597 -177 l32 -1 -32 -4 -33 -4 0
-168 c0 -176 2 -184 45 -193 16 -3 12 -8 -22 -26 -47 -25 -83 -19 -102 17 -7
12 -11 91 -11 195 0 175 0 176 -22 176 -19 0 -12 11 42 65 l65 66 3 -61 c3
-60 3 -60 35 -62z m-1043 -6 c0 -4 -51 -93 -114 -197 -63 -104 -113 -191 -111
-193 10 -10 108 23 159 54 31 19 59 34 62 34 2 0 4 -22 4 -50 l0 -50 -165 0
-166 0 15 28 c8 15 60 101 115 192 92 153 98 165 77 168 -26 3 -121 -36 -166
-68 l-30 -21 0 55 0 56 160 0 c88 0 160 -3 160 -8z m358 -19 c42 -31 58 -66
47 -100 -8 -22 -32 -39 -123 -86 -97 -50 -112 -61 -101 -73 40 -49 134 -61
194 -25 27 16 36 18 32 7 -3 -8 -11 -33 -17 -55 -10 -37 -13 -40 -62 -50 -91
-20 -176 11 -225 82 -25 36 -28 49 -28 122 0 73 3 86 28 124 38 57 93 83 170
78 38 -2 67 -10 85 -24z m235 -36 c31 57 99 78 156 48 82 -42 96 -228 24 -323
-39 -52 -79 -72 -145 -72 l-58 0 0 -95 0 -95 -40 0 -40 0 0 259 c0 143 -3 266
-6 275 -3 9 -14 16 -23 17 -9 0 11 10 44 22 l60 22 5 -45 5 -45 18 32z m787
42 c72 -41 106 -151 80 -258 -23 -97 -111 -155 -197 -132 -90 25 -128 86 -128
206 1 65 5 88 24 121 45 79 143 107 221 63z m-1220 -619 c0 -5 -11 -10 -25
-10 -18 0 -25 -5 -25 -20 0 -15 7 -20 25 -20 14 0 25 -4 25 -10 0 -5 -11 -10
-25 -10 -20 0 -25 -5 -25 -24 0 -20 6 -25 33 -29 28 -3 26 -4 -10 -5 l-43 -2
0 63 c0 35 3 67 7 70 10 11 63 8 63 -3z m149 0 c41 -11 51 -24 51 -67 0 -39
-30 -63 -77 -63 l-33 0 0 70 c0 76 1 77 59 60z m168 -107 c11 -9 21 -9 34 -2
15 8 19 21 19 65 0 34 4 53 10 49 16 -10 12 -88 -6 -113 -35 -51 -94 -12 -94
64 0 61 15 64 18 2 2 -34 8 -57 19 -65z m267 96 c5 -5 7 -12 3 -16 -4 -4 -13
-1 -19 5 -15 15 -51 15 -66 0 -19 -19 -14 -65 9 -81 21 -15 59 -12 59 4 0 5 7
9 17 9 14 0 14 -2 -2 -20 -39 -43 -115 -11 -115 49 0 55 76 88 114 50z m366
11 c0 -5 -7 -10 -15 -10 -12 0 -15 -13 -15 -60 0 -33 -4 -60 -10 -60 -6 0 -10
27 -10 60 0 54 -2 60 -21 60 -11 0 -17 5 -14 10 3 6 24 10 46 10 21 0 39 -4
39 -10z m100 -60 c0 -40 -4 -70 -10 -70 -11 0 -14 123 -3 133 12 13 13 7 13
-63z m195 45 c30 -29 32 -68 4 -96 -46 -46 -133 5 -112 67 9 28 43 54 71 54 7
0 24 -11 37 -25z m155 -28 l35 -52 3 53 c4 74 22 55 22 -24 0 -80 -14 -83 -57
-11 l-32 52 -1 -52 c0 -29 -4 -53 -10 -53 -6 0 -10 30 -10 70 0 39 3 70 8 70
4 0 23 -24 42 -53z m-633 -19 c22 -58 23 -93 2 -55 -13 22 -58 22 -75 0 -20
-26 -17 -2 7 62 11 30 26 55 32 55 7 0 22 -28 34 -62z"/>
<path d="M2477 4154 c-15 -15 -7 -53 13 -59 27 -8 52 12 48 39 -3 21 -46 35
-61 20z"/>
<path d="M1544 3766 c-11 -28 1 -51 25 -51 32 0 49 28 32 49 -17 20 -50 21
-57 2z"/>
<path d="M3404 3766 c-11 -28 1 -51 28 -54 31 -4 48 29 28 53 -16 19 -49 19
-56 1z"/>
<path d="M2341 4036 c-9 -11 -10 -20 -1 -35 21 -40 79 -15 65 29 -7 24 -46 27
-64 6z"/>
<path d="M1709 3774 c-17 -21 0 -49 31 -49 31 0 48 28 31 49 -8 9 -21 16 -31
16 -10 0 -23 -7 -31 -16z"/>
<path d="M2600 4045 c-26 -32 13 -81 48 -59 34 22 22 74 -18 74 -10 0 -23 -7
-30 -15z"/>
<path d="M3229 3774 c-17 -21 0 -49 31 -49 31 0 48 28 31 49 -8 9 -21 16 -31
16 -10 0 -23 -7 -31 -16z"/>
<path d="M3411 3592 c-14 -27 8 -55 40 -50 19 2 24 9 24 33 0 25 -4 31 -27 33
-18 2 -30 -3 -37 -16z"/>
<path d="M3670 2960 c-12 -23 -7 -35 20 -50 28 -15 65 22 50 50 -14 26 -56 26
-70 0z"/>
<path d="M1532 3598 c-28 -28 -1 -75 37 -63 25 8 34 31 21 56 -12 21 -40 25
-58 7z"/>
<path d="M1272 2968 c-35 -35 10 -81 48 -50 19 16 21 22 11 40 -13 24 -40 29
-59 10z"/>
<path d="M1796 2615 c-31 -33 -39 -80 -26 -143 16 -73 31 -81 80 -47 63 44
110 101 110 134 0 73 -113 111 -164 56z"/>
<path d="M2262 2603 c-32 -13 -45 -67 -50 -207 l-5 -139 43 6 c86 11 125 85
119 225 -3 61 -9 85 -23 101 -18 20 -55 26 -84 14z"/>
<path d="M2876 2631 c-76 -84 5 -371 105 -371 45 0 71 107 49 201 -17 71 -53
142 -86 168 -33 26 -46 26 -68 2z"/>
<path d="M1910 1955 c0 -55 0 -55 28 -49 36 9 45 18 45 48 0 34 -20 56 -49 56
-22 0 -24 -4 -24 -55z"/>
<path d="M2966 1994 c-43 -42 14 -112 63 -78 38 27 18 94 -29 94 -10 0 -26 -7
-34 -16z"/>
<path d="M2521 1967 c-14 -37 -14 -37 9 -37 21 0 27 24 10 50 -7 11 -11 9 -19
-13z"/>
</g>
</svg>
